<svg width="175" height="161" viewBox="0 0 175 161" fill="none" xmlns="http://www.w3.org/2000/svg">
<path d="M113.207 51.5061V13.5H172.793V51.5061H113.207Z" fill="#FF9201"/>
<path d="M172.793 51.5063L147.906 32.2324C144.865 30.1414 140.838 30.1304 137.785 32.2026C129.234 38.0079 113.207 51.5063 113.207 51.5063H172.793Z" fill="#BCDCFF"/>
<path d="M138.761 31.6436H138.586L113.206 13.5059L113.207 51.5057C113.207 51.5057 129.234 38.0072 137.784 32.202C138.099 31.989 138.429 31.8125 138.761 31.6436Z" fill="#A7D0FE"/>
<path d="M147.414 31.6437H146.892C147.237 31.8202 147.579 32.0078 147.905 32.2318L172.793 51.5057V13.5059L147.414 31.6437Z" fill="#A7D0FE"/>
<path d="M172.793 13.5063L147.906 32.7803C144.865 34.8713 140.838 34.8823 137.785 32.8101C129.234 27.0048 113.207 13.5063 113.207 13.5063H172.793Z" fill="white"/>
<g clip-path="url(#clip0_5037_512)">
<path d="M148.862 63.2387L103.274 18.6732C97.5825 13.1076 88.417 13.1076 82.7253 18.6732L37.1377 63.2387V134.5H148.862V63.2387Z" fill="#FF9201"/>
<rect x="53" y="30.5" width="80" height="104" rx="4" fill="white"/>
<g clip-path="url(#clip1_5037_512)">
<path fill-rule="evenodd" clip-rule="evenodd" d="M73 66C77.1421 66 80.5 62.6421 80.5 58.5C80.5 54.3579 77.1421 51 73 51C68.8579 51 65.5 54.3579 65.5 58.5C65.5 62.6421 68.8579 66 73 66ZM73 70.5C79.6274 70.5 85 65.1274 85 58.5C85 51.8726 79.6274 46.5 73 46.5C66.3726 46.5 61 51.8726 61 58.5C61 65.1274 66.3726 70.5 73 70.5Z" fill="#2EC5CE"/>
<rect x="89" y="51.5" width="36" height="6" rx="0.5" fill="#2EC5CE"/>
<rect opacity="0.4" x="89" y="60.5" width="16" height="5" rx="0.5" fill="#2EC5CE"/>
</g>
<path d="M148.862 134.5L102.198 98.3616C96.4963 94.4409 88.9467 94.4202 83.2218 98.3057C67.1874 109.191 37.1377 134.5 37.1377 134.5H148.862Z" fill="#FFDC81"/>
<path d="M85.0508 97.2587H84.7239L37.1377 64.1553V134.5C37.1377 134.5 67.1874 109.19 83.2198 98.3056C83.8094 97.9063 84.428 97.5753 85.0508 97.2587Z" fill="#FFCA00"/>
<path d="M101.276 97.2587H100.298C100.945 97.5898 101.587 97.9415 102.197 98.3615L148.863 134.5V64.1553L101.276 97.2587Z" fill="#FFB800"/>
</g>
<path d="M2.20703 147.506V109.5H61.7932V147.506H2.20703Z" fill="#FF9201"/>
<path d="M61.7932 147.506L36.9061 128.232C33.865 126.141 29.8385 126.13 26.7852 128.203C18.2335 134.008 2.20703 147.506 2.20703 147.506H61.7932Z" fill="#BCDCFF"/>
<path d="M27.7607 127.644H27.5863L2.20605 109.506L2.20703 147.506C2.20703 147.506 18.2335 134.007 26.7841 128.202C27.0986 127.989 27.4286 127.812 27.7607 127.644Z" fill="#A7D0FE"/>
<path d="M36.4135 127.644H35.8916C36.237 127.82 36.579 128.008 36.9046 128.232L61.7928 147.506V109.506L36.4135 127.644Z" fill="#A7D0FE"/>
<path d="M61.7932 109.506L36.9061 128.78C33.865 130.871 29.8385 130.882 26.7852 128.81C18.2335 123.005 2.20703 109.506 2.20703 109.506H61.7932Z" fill="white"/>
<circle cx="145" cy="122.5" r="24" fill="white"/>
<g opacity="0.4">
<path d="M151 115.206C151 118.752 148.122 121.627 144.571 121.627C141.021 121.627 138.143 118.752 138.143 115.206C138.143 111.661 141.021 108.786 144.571 108.786C148.122 108.786 151 111.661 151 115.206Z" fill="#2EC5CE"/>
<path d="M157 136.179C157 136.179 148.913 136.259 143.714 136.179C139.517 136.115 133 136.179 133 136.179C133 136.179 134.714 123.339 145 123.339C155.286 123.339 157 136.179 157 136.179Z" fill="#2EC5CE"/>
</g>
<circle cx="163" cy="104.5" r="10" fill="#2EC5CE"/>
<path fill-rule="evenodd" clip-rule="evenodd" d="M163 99.833C163.322 99.833 163.583 100.094 163.583 100.416V103.916H167.083C167.405 103.916 167.666 104.178 167.666 104.5C167.666 104.822 167.405 105.083 167.083 105.083H163.583V108.583C163.583 108.905 163.322 109.166 163 109.166C162.678 109.166 162.416 108.905 162.416 108.583V105.083H158.916C158.594 105.083 158.333 104.822 158.333 104.5C158.333 104.178 158.594 103.916 158.916 103.916H162.416V100.416C162.416 100.094 162.678 99.833 163 99.833Z" fill="white"/>
<defs>
<clipPath id="clip0_5037_512">
<rect width="120" height="120" fill="white" transform="translate(33 14.5)"/>
</clipPath>
<clipPath id="clip1_5037_512">
<rect width="64" height="24" fill="white" transform="translate(61 46.5)"/>
</clipPath>
</defs>
</svg>
