<svg width="20" height="16" viewBox="0 0 20 16" fill="none" xmlns="http://www.w3.org/2000/svg">
<path d="M19.7494 1.96017C19.0322 2.26954 18.2518 2.4922 17.4479 2.57892C18.2825 2.08306 18.9075 1.2997 19.2057 0.375791C18.4225 0.841703 17.5645 1.16841 16.6697 1.34142C16.2958 0.941634 15.8435 0.62315 15.3411 0.405808C14.8386 0.188467 14.2968 0.0769255 13.7494 0.0781347C11.5346 0.0781347 9.75332 1.87345 9.75332 4.07657C9.75332 4.38595 9.79082 4.69532 9.85176 4.99298C6.53535 4.81954 3.57754 3.23517 1.61113 0.809385C1.25283 1.42137 1.06507 2.1182 1.06738 2.82735C1.06738 4.21485 1.77285 5.43829 2.84863 6.15782C2.21466 6.13285 1.59553 5.9586 1.0416 5.64923V5.69845C1.0416 7.64142 2.41504 9.25157 4.24551 9.62189C3.90182 9.71116 3.54826 9.75683 3.19316 9.75782C2.93301 9.75782 2.68691 9.73204 2.43848 9.69689C2.94473 11.2813 4.41895 12.432 6.17441 12.4695C4.80098 13.5453 3.08066 14.1781 1.2127 14.1781C0.877539 14.1781 0.568164 14.1664 0.24707 14.1289C2.01895 15.2656 4.12129 15.9219 6.38535 15.9219C13.7354 15.9219 17.7572 9.83282 17.7572 4.54767C17.7572 4.37423 17.7572 4.20079 17.7455 4.02735C18.5236 3.45782 19.2057 2.75235 19.7494 1.96017Z" fill="#2997F9"/>
</svg>
