<svg width="22" height="18" viewBox="0 0 22 18" fill="none" xmlns="http://www.w3.org/2000/svg">
<path d="M20.625 3.25718C20.4408 2.09674 19.3799 1.08265 18.2058 0.948119C13.4144 0.425991 8.58045 0.426148 3.78909 0.948587C2.61919 1.08265 1.55831 2.09656 1.37316 3.2614C0.790759 7.06629 0.79098 10.9377 1.37381 14.7425C1.55822 15.9029 2.61919 16.9169 3.79303 17.0513C6.18628 17.3123 8.59196 17.4431 10.9994 17.443C13.4069 17.4431 15.8125 17.3123 18.2058 17.0513L18.2096 17.0509C19.3796 16.917 20.4407 15.903 20.6257 14.7381C21.2081 10.9333 21.2079 7.06194 20.625 3.25718ZM14.4154 9.62374L9.91538 12.6237C9.80243 12.699 9.67117 12.7422 9.53559 12.7488C9.40001 12.7553 9.26519 12.725 9.14552 12.6609C9.02584 12.5969 8.92579 12.5016 8.85603 12.3851C8.78627 12.2687 8.74942 12.1355 8.74941 11.9997V5.99974C8.74941 5.86399 8.78626 5.73078 8.85602 5.61433C8.92578 5.49787 9.02585 5.40254 9.14554 5.33849C9.26523 5.27444 9.40006 5.24407 9.53566 5.25063C9.67125 5.25719 9.80252 5.30044 9.91547 5.37574L14.4155 8.37574C14.5182 8.44424 14.6024 8.53703 14.6607 8.64588C14.7189 8.75473 14.7494 8.87628 14.7494 8.99974C14.7494 9.1232 14.7189 9.24475 14.6607 9.35361C14.6024 9.46246 14.5182 9.55525 14.4155 9.62374H14.4154Z" fill="#2997F9"/>
</svg>
